<mxfile host="Electron" agent="Mozilla/5.0 (X11; Linux x86_64) AppleWebKit/537.36 (KHTML, like Gecko) draw.io/26.0.4 Chrome/128.0.6613.186 Electron/32.2.5 Safari/537.36" version="26.0.4">
  <diagram name="Page-1" id="0aeYJdrc8Dao-o92EEg2">
    <mxGraphModel dx="1114" dy="1198" grid="1" gridSize="10" guides="1" tooltips="1" connect="1" arrows="1" fold="1" page="1" pageScale="1" pageWidth="850" pageHeight="1100" math="0" shadow="0">
      <root>
        <mxCell id="0" />
        <mxCell id="1" parent="0" />
        <mxCell id="6CvG8jUZ0vV-zcenxZ_k-1" value="&amp;nbsp;What time is it?&amp;nbsp;" style="edgeStyle=orthogonalEdgeStyle;rounded=0;orthogonalLoop=1;jettySize=auto;html=1;" edge="1" parent="1">
          <mxGeometry relative="1" as="geometry">
            <mxPoint x="114.4545454545455" y="350" as="sourcePoint" />
            <mxPoint x="240" y="350" as="targetPoint" />
          </mxGeometry>
        </mxCell>
        <mxCell id="6CvG8jUZ0vV-zcenxZ_k-2" value="&amp;nbsp;5:30 pm!" style="edgeStyle=orthogonalEdgeStyle;rounded=0;orthogonalLoop=1;jettySize=auto;html=1;" edge="1" parent="1">
          <mxGeometry relative="1" as="geometry">
            <mxPoint x="240" y="390" as="sourcePoint" />
            <mxPoint x="114.4545454545455" y="390" as="targetPoint" />
          </mxGeometry>
        </mxCell>
        <mxCell id="6CvG8jUZ0vV-zcenxZ_k-3" value="" style="sketch=0;outlineConnect=0;fontColor=#232F3E;gradientColor=none;fillColor=#232F3D;strokeColor=none;dashed=0;verticalLabelPosition=bottom;verticalAlign=top;align=center;html=1;fontSize=12;fontStyle=0;aspect=fixed;pointerEvents=1;shape=mxgraph.aws4.user;" vertex="1" parent="1">
          <mxGeometry x="40" y="330" width="78" height="78" as="geometry" />
        </mxCell>
        <mxCell id="6CvG8jUZ0vV-zcenxZ_k-18" style="edgeStyle=orthogonalEdgeStyle;rounded=0;orthogonalLoop=1;jettySize=auto;html=1;" edge="1" parent="1" source="6CvG8jUZ0vV-zcenxZ_k-6" target="6CvG8jUZ0vV-zcenxZ_k-8">
          <mxGeometry relative="1" as="geometry">
            <Array as="points">
              <mxPoint x="264" y="310" />
            </Array>
          </mxGeometry>
        </mxCell>
        <mxCell id="6CvG8jUZ0vV-zcenxZ_k-19" style="edgeStyle=orthogonalEdgeStyle;rounded=0;orthogonalLoop=1;jettySize=auto;html=1;" edge="1" parent="1" source="6CvG8jUZ0vV-zcenxZ_k-6" target="6CvG8jUZ0vV-zcenxZ_k-9">
          <mxGeometry relative="1" as="geometry">
            <Array as="points">
              <mxPoint x="264" y="454" />
            </Array>
          </mxGeometry>
        </mxCell>
        <mxCell id="6CvG8jUZ0vV-zcenxZ_k-6" value="Elastic IP Address" style="sketch=0;outlineConnect=0;fontColor=#232F3E;gradientColor=none;fillColor=#ED7100;strokeColor=none;dashed=0;verticalLabelPosition=middle;verticalAlign=middle;align=left;html=1;fontSize=12;fontStyle=0;aspect=fixed;pointerEvents=1;shape=mxgraph.aws4.elastic_ip_address;labelPosition=right;spacingLeft=5;" vertex="1" parent="1">
          <mxGeometry x="240" y="359" width="48" height="20" as="geometry" />
        </mxCell>
        <mxCell id="6CvG8jUZ0vV-zcenxZ_k-14" value="Auto Scaling group" style="points=[[0,0],[0.25,0],[0.5,0],[0.75,0],[1,0],[1,0.25],[1,0.5],[1,0.75],[1,1],[0.75,1],[0.5,1],[0.25,1],[0,1],[0,0.75],[0,0.5],[0,0.25]];outlineConnect=0;gradientColor=none;html=1;whiteSpace=wrap;fontSize=12;fontStyle=0;container=1;pointerEvents=0;collapsible=0;recursiveResize=0;shape=mxgraph.aws4.groupCenter;grIcon=mxgraph.aws4.group_auto_scaling_group;grStroke=1;strokeColor=#D86613;fillColor=none;verticalAlign=top;align=center;fontColor=#D86613;dashed=1;spacingTop=25;" vertex="1" parent="1">
          <mxGeometry x="425" y="190" width="190" height="360" as="geometry" />
        </mxCell>
        <mxCell id="6CvG8jUZ0vV-zcenxZ_k-16" value="Availability Zone 1" style="fillColor=none;strokeColor=#147EBA;dashed=1;verticalAlign=top;fontStyle=0;fontColor=#147EBA;whiteSpace=wrap;html=1;" vertex="1" parent="6CvG8jUZ0vV-zcenxZ_k-14">
          <mxGeometry x="37.5" y="60" width="115" height="120" as="geometry" />
        </mxCell>
        <mxCell id="6CvG8jUZ0vV-zcenxZ_k-15" value="Availability Zone 2" style="fillColor=none;strokeColor=#147EBA;dashed=1;verticalAlign=top;fontStyle=0;fontColor=#147EBA;whiteSpace=wrap;html=1;" vertex="1" parent="6CvG8jUZ0vV-zcenxZ_k-14">
          <mxGeometry x="37.5" y="210" width="115" height="131" as="geometry" />
        </mxCell>
        <mxCell id="6CvG8jUZ0vV-zcenxZ_k-8" value="Public EC2" style="sketch=0;outlineConnect=0;fontColor=#232F3E;gradientColor=none;fillColor=#ED7100;strokeColor=none;dashed=0;verticalLabelPosition=bottom;verticalAlign=top;align=center;html=1;fontSize=12;fontStyle=0;aspect=fixed;pointerEvents=1;shape=mxgraph.aws4.t2_instance;" vertex="1" parent="6CvG8jUZ0vV-zcenxZ_k-14">
          <mxGeometry x="71" y="96" width="48" height="48" as="geometry" />
        </mxCell>
        <mxCell id="6CvG8jUZ0vV-zcenxZ_k-9" value="Replacement&lt;div&gt;EC2 Instance&lt;/div&gt;" style="sketch=0;outlineConnect=0;fontColor=#232F3E;gradientColor=none;fillColor=#ED7100;strokeColor=none;dashed=0;verticalLabelPosition=bottom;verticalAlign=top;align=center;html=1;fontSize=12;fontStyle=0;aspect=fixed;pointerEvents=1;shape=mxgraph.aws4.t2_instance;" vertex="1" parent="6CvG8jUZ0vV-zcenxZ_k-14">
          <mxGeometry x="71" y="240" width="48" height="48" as="geometry" />
        </mxCell>
        <mxCell id="6CvG8jUZ0vV-zcenxZ_k-20" value="EC2 User Data&lt;div&gt;Attachment&lt;/div&gt;&lt;div&gt;Based on Tag&lt;/div&gt;" style="text;html=1;align=center;verticalAlign=middle;resizable=0;points=[];autosize=1;strokeColor=none;fillColor=none;" vertex="1" parent="1">
          <mxGeometry x="290" y="460" width="100" height="60" as="geometry" />
        </mxCell>
        <mxCell id="6CvG8jUZ0vV-zcenxZ_k-22" value="&lt;h1 style=&quot;margin-top: 0px;&quot;&gt;ASG Settings&lt;/h1&gt;&lt;p&gt;1 min&lt;/p&gt;&lt;p&gt;1 max&lt;/p&gt;&lt;p&gt;1 desired&lt;/p&gt;&lt;p&gt;&amp;gt;= 2 AZ&lt;/p&gt;&lt;p&gt;&lt;br&gt;&lt;/p&gt;&lt;p&gt;EC2 user data to attach&lt;/p&gt;&lt;p&gt;The Elastic IP&lt;/p&gt;&lt;p&gt;&lt;br&gt;&lt;/p&gt;&lt;p&gt;EC2 instance role to&lt;/p&gt;&lt;p&gt;Allow API calls to attach&lt;/p&gt;&lt;p&gt;The Elastic IP&lt;/p&gt;" style="text;html=1;whiteSpace=wrap;overflow=hidden;rounded=0;" vertex="1" parent="1">
          <mxGeometry x="630" y="200" width="180" height="340" as="geometry" />
        </mxCell>
      </root>
    </mxGraphModel>
  </diagram>
</mxfile>
